<?xml version="1.0" encoding="UTF-8"?>
<svg width="128" height="128" viewBox="0 0 128 128" xmlns="http://www.w3.org/2000/svg">
  <defs>
    <linearGradient id="gradient" x1="0%" y1="0%" x2="100%" y2="100%">
      <stop offset="0%" style="stop-color:#3584e4;stop-opacity:1" />
      <stop offset="100%" style="stop-color:#1c71d8;stop-opacity:1" />
    </linearGradient>
  </defs>
  
  <!-- Background circle -->
  <circle cx="64" cy="64" r="60" fill="url(#gradient)" stroke="#1a5fb4" stroke-width="2"/>
  
  <!-- Building/Architecture icon -->
  <g transform="translate(32, 32)">
    <!-- Base building -->
    <rect x="8" y="32" width="48" height="32" fill="white" opacity="0.9" stroke="#1a5fb4" stroke-width="1"/>
    
    <!-- Roof -->
    <polygon points="4,32 32,8 60,32" fill="white" opacity="0.9" stroke="#1a5fb4" stroke-width="1"/>
    
    <!-- Windows -->
    <rect x="12" y="36" width="6" height="6" fill="#1c71d8"/>
    <rect x="20" y="36" width="6" height="6" fill="#1c71d8"/>
    <rect x="38" y="36" width="6" height="6" fill="#1c71d8"/>
    <rect x="46" y="36" width="6" height="6" fill="#1c71d8"/>
    
    <rect x="12" y="48" width="6" height="6" fill="#1c71d8"/>
    <rect x="20" y="48" width="6" height="6" fill="#1c71d8"/>
    <rect x="38" y="48" width="6" height="6" fill="#1c71d8"/>
    <rect x="46" y="48" width="6" height="6" fill="#1c71d8"/>
    
    <!-- Door -->
    <rect x="28" y="52" width="8" height="12" fill="#1c71d8"/>
    
    <!-- Electrical symbol -->
    <circle cx="16" cy="20" r="3" fill="#f9c23c" stroke="#e5a50a" stroke-width="1"/>
    <text x="16" y="23" text-anchor="middle" font-family="monospace" font-size="6" fill="#1a5fb4">⚡</text>
    
    <!-- Plumbing symbol -->
    <circle cx="48" cy="20" r="3" fill="#8ff0a4" stroke="#26a269" stroke-width="1"/>
    <text x="48" y="23" text-anchor="middle" font-family="monospace" font-size="6" fill="#1a5fb4">🚿</text>
  </g>
  
  <!-- App name -->
  <text x="64" y="110" text-anchor="middle" font-family="sans-serif" font-size="12" font-weight="bold" fill="white">NovaDesign</text>
</svg>